<?xml version="1.0" encoding="UTF-8" standalone="no"?>
<svg width="96px" height="96px" viewBox="0 0 96 96" version="1.1" xmlns="http://www.w3.org/2000/svg" xmlns:xlink="http://www.w3.org/1999/xlink" xmlns:sketch="http://www.bohemiancoding.com/sketch/ns">
    <!-- Generator: Sketch 3.3.3 (12072) - http://www.bohemiancoding.com/sketch -->
    <title>Artboard 1</title>
    <desc>Created with Sketch.</desc>
    <defs></defs>
    <g id="Page-1" stroke="none" stroke-width="1" fill="none" fill-rule="evenodd" sketch:type="MSPage">
        <g id="Artboard-1" sketch:type="MSArtboardGroup" stroke="#FF7043">
            <path d="M9.1125,3 L9.1125,25.5 L87.8625,25.5 L87.8625,3 L9.1125,3 L9.1125,3 Z M9.1125,36.75 L9.1125,91.9875 C9.1125,92.55 9.5625,93 10.125,93 L86.7375,93 C87.3,93 87.75,92.55 87.75,91.9875 L87.75,36.75 L9,36.75 L9.1125,36.75 Z M20.3625,48 L31.6125,48 L31.6125,59.25 L20.3625,59.25 L20.3625,48 L20.3625,48 Z M42.8625,48 L54.1125,48 L54.1125,59.25 L42.8625,59.25 L42.8625,48 L42.8625,48 Z M65.3625,48 L76.6125,48 L76.6125,59.25 L65.3625,59.25 L65.3625,48 L65.3625,48 Z M20.3625,70.5 L31.6125,70.5 L31.6125,81.75 L20.3625,81.75 L20.3625,70.5 L20.3625,70.5 Z M42.8625,70.5 L54.1125,70.5 L54.1125,81.75 L42.8625,81.75 L42.8625,70.5 L42.8625,70.5 Z" id="Shape" sketch:type="MSShapeGroup"></path>
        </g>
    </g>
</svg>