<?xml version="1.0" encoding="UTF-8" standalone="no"?>
<svg width="96px" height="96px" viewBox="0 0 96 96" version="1.1" xmlns="http://www.w3.org/2000/svg" xmlns:xlink="http://www.w3.org/1999/xlink" xmlns:sketch="http://www.bohemiancoding.com/sketch/ns">
    <!-- Generator: Sketch 3.3.3 (12072) - http://www.bohemiancoding.com/sketch -->
    <title>Artboard 1</title>
    <desc>Created with Sketch.</desc>
    <defs></defs>
    <g id="Page-1" stroke="none" stroke-width="1" fill="none" fill-rule="evenodd" sketch:type="MSPage">
        <g id="Artboard-1" sketch:type="MSArtboardGroup" stroke="#FF7043">
            <path d="M48,3 C23.25,3 3,23.25 3,48 C3,72.75 23.25,93 48,93 C72.75,93 93,72.75 93,48 C93,23.25 72.75,3 48,3 L48,3 Z M48,14.25 C66.675,14.25 81.75,29.325 81.75,48 C81.75,66.675 66.675,81.75 48,81.75 C29.325,81.75 14.25,66.675 14.25,48 C14.25,29.325 29.325,14.25 48,14.25 L48,14.25 Z M42.375,25.5 L42.375,50.475 L44.175,51.9375 L49.8,57.5625 L53.625,61.8375 L61.725,53.7375 L57.45,49.9125 L53.625,46.0875 L53.625,25.725 L42.375,25.725 L42.375,25.5 Z" id="Shape" sketch:type="MSShapeGroup"></path>
        </g>
    </g>
</svg>