<?xml version="1.0" encoding="UTF-8" standalone="no"?>
<svg width="96px" height="96px" viewBox="0 0 96 96" version="1.1" xmlns="http://www.w3.org/2000/svg" xmlns:xlink="http://www.w3.org/1999/xlink" xmlns:sketch="http://www.bohemiancoding.com/sketch/ns">
    <!-- Generator: Sketch 3.3.3 (12072) - http://www.bohemiancoding.com/sketch -->
    <title>Artboard 1</title>
    <desc>Created with Sketch.</desc>
    <defs></defs>
    <g id="Page-1" stroke="none" stroke-width="1" fill="none" fill-rule="evenodd" sketch:type="MSPage">
        <g id="Artboard-1" sketch:type="MSArtboardGroup" stroke="#FF7043">
            <path d="M25.8539326,3 C16.5280899,3 9,10.5280899 9,19.8539326 C9,27.2696629 13.6067416,33.3370787 20.2359551,35.6966292 L20.2359551,60.3033708 C13.6067416,62.5505618 9,68.7303371 9,76.1460674 C9,85.4719101 16.5280899,93 25.8539326,93 C35.1797753,93 42.7078652,85.4719101 42.7078652,76.1460674 C42.7078652,69.4044944 38.8876404,63.7865169 33.2696629,61.0898876 C34.2808989,60.0786517 35.6292135,59.2921348 37.0898876,59.2921348 L59.5617978,59.2921348 C68.7752809,59.2921348 76.4157303,51.6516854 76.4157303,42.4382022 L76.4157303,35.8089888 C83.0449438,33.5617978 87.6516854,27.3820225 87.6516854,19.9662921 C87.6516854,10.6404494 80.1235955,3.11235955 70.7977528,3.11235955 C61.4719101,3.11235955 53.9438202,10.6404494 53.9438202,19.9662921 C53.9438202,27.3820225 58.5505618,33.4494382 65.1797753,35.8089888 L65.1797753,42.4382022 C65.1797753,45.5842697 62.7078652,48.0561798 59.5617978,48.0561798 L37.0898876,48.0561798 C35.1797753,48.0561798 33.1573034,48.505618 31.4719101,49.0674157 L31.4719101,35.6966292 C38.1011236,33.4494382 42.7078652,27.2696629 42.7078652,19.8539326 C42.7078652,10.5280899 35.1797753,3 25.8539326,3 L25.8539326,3 Z" id="Shape" sketch:type="MSShapeGroup"></path>
        </g>
    </g>
</svg>