<?xml version="1.0" encoding="UTF-8" standalone="no"?>
<svg width="96px" height="96px" viewBox="0 0 96 96" version="1.1" xmlns="http://www.w3.org/2000/svg" xmlns:xlink="http://www.w3.org/1999/xlink" xmlns:sketch="http://www.bohemiancoding.com/sketch/ns">
    <!-- Generator: Sketch 3.3.3 (12072) - http://www.bohemiancoding.com/sketch -->
    <title>Artboard 1</title>
    <desc>Created with Sketch.</desc>
    <defs></defs>
    <g id="Page-1" stroke="none" stroke-width="1" fill="none" fill-rule="evenodd" sketch:type="MSPage">
        <g id="Artboard-1" sketch:type="MSArtboardGroup" stroke="#FF7043">
            <path d="M64.875,3 C59.1375,3 54.1875,6.9375 51.15,12.9 C56.2125,18.975 59.25,27.3 59.25,36.8625 C59.25,40.125 58.9125,43.05 58.2375,45.975 C60.375,47.2125 62.5125,48.1125 64.875,48.1125 C74.2125,48.1125 81.75,37.9875 81.75,25.6125 C81.75,13.2375 74.2125,3.1125 64.875,3.1125 L64.875,3 Z M31.125,14.25 C21.7875,14.25 14.25,24.375 14.25,36.75 C14.25,49.125 21.7875,59.25 31.125,59.25 C40.4625,59.25 48,49.125 48,36.75 C48,24.375 40.4625,14.25 31.125,14.25 L31.125,14.25 Z M84.5625,49.8 C79.725,55.5375 73.0875,59.025 65.55,59.25 C68.5875,63.525 70.5,68.7 70.5,74.325 L70.5,81.75 L93,81.75 L93,63.075 C93,57.225 89.5125,52.1625 84.5625,49.6875 L84.5625,49.8 Z M11.4375,61.05 C6.4875,63.525 3,68.5875 3,74.4375 L3,93.1125 L59.25,93.1125 L59.25,74.4375 C59.25,68.5875 55.7625,63.525 50.8125,61.05 C45.75,67.0125 38.8875,70.5 31.125,70.5 C23.3625,70.5 16.5,66.9 11.4375,61.05 L11.4375,61.05 Z" id="Shape" sketch:type="MSShapeGroup"></path>
        </g>
    </g>
</svg>