<?xml version="1.0" encoding="utf-8"?>
<!-- Generator: Adobe Illustrator 16.0.4, SVG Export Plug-In . SVG Version: 6.00 Build 0)  -->
<!DOCTYPE svg PUBLIC "-//W3C//DTD SVG 1.1//EN" "http://www.w3.org/Graphics/SVG/1.1/DTD/svg11.dtd">
<svg version="1.1" xmlns="http://www.w3.org/2000/svg" xmlns:xlink="http://www.w3.org/1999/xlink" x="0px" y="0px" width="180px"
	 height="80px" viewBox="-28.625 -130.333 180 80" enable-background="new -28.625 -130.333 180 80" xml:space="preserve">
<g id="color" xmlns:sketch="http://www.bohemiancoding.com/sketch/ns">
	<g>
		<path id="Oval-1_5_" sketch:type="MSShapeGroup" fill="#263238" d="M21.375-60.333c16.568,0,30-13.432,30-30s-13.432-30-30-30
			s-30,13.432-30,30S4.807-60.333,21.375-60.333z"/>
		<g id="tulip_1_">
			<path id="Fill-1_1_" sketch:type="MSShapeGroup" fill="#F89D66" d="M21.375-88.333l-10.5-4.727l10.5-8.273l10.5,8.273
				L21.375-88.333z"/>
			<path id="Fill-3_1_" sketch:type="MSShapeGroup" fill="#F37049" d="M8.875-89.921v-9.412l12.5,5.883l12.5-5.883v9.412
				c0,7.059-5,10.588-12.5,10.588S8.875-82.863,8.875-89.921z"/>
		</g>
		<path id="Shape_1_" sketch:type="MSShapeGroup" fill="#FFFFFF" d="M-4.471-75.07c0.565,0.365,2.535-1.018,3.329-1.619
			c3.109-2.494,6.508-2.018,9.055-0.42c2.961,1.43,7.557,3.115,8.817,2.912c3.729-0.711,8.941-0.143,11.722-1.828
			c2.78-1.684,9.947-5.428,7.746-8.156c-0.893-0.852-2.229-0.244-3.187,0.162c-1.448,0.643-2.655,1.691-3.912,2.639
			c-2.386,1.469-5.301,1.055-7.951,1.439c-2.237,0.178-4.629-0.58-6.058-2.428c1.723-0.42,4.568-0.285,6.073,0.324
			c1.567,0.316,3.485-0.219,4.291-1.73c0.577-1.277-0.632-2.748-1.862-2.914c-3.22-0.828-6.72-0.615-9.749-2.184
			c-2.681-1.18-5.543-2.494-8.487-2.461c-0.679,0.01-1.366,0.09-2.051,0.26c-2.545,1.457-7.566,3.962-10.99,7.671"/>
		<g id="Oval-1_2_" sketch:type="MSShapeGroup">
			<path fill="#263238" d="M21.375-118.333c15.439,0,28,12.561,28,28s-12.561,28-28,28s-28-12.561-28-28
				S5.936-118.333,21.375-118.333 M21.375-120.333c-16.568,0-30,13.432-30,30s13.432,30,30,30s30-13.432,30-30
				S37.943-120.333,21.375-120.333L21.375-120.333z"/>
		</g>
	</g>
	<g>
		<path fill="#263238" d="M73.369-108.478L67.734-82.02c-0.146,0.638-0.196,1.127-0.196,1.568c0,1.372,0.638,1.812,2.009,1.812
			c1.911,0,3.675-1.861,4.41-4.312h2.058c-2.793,7.986-7.644,9.064-10.289,9.064c-2.939,0-5.242-1.764-5.242-5.88
			c0-0.931,0.146-2.009,0.392-3.185l5.242-24.547L73.369-108.478z"/>
		<path fill="#263238" d="M97.477-98.678L93.948-82.02c-0.146,0.638-0.196,1.127-0.196,1.568c0,1.372,0.638,2.106,2.009,2.106
			c1.911,0,3.234-2.155,3.969-4.605h2.059c-2.793,7.986-7.203,9.064-9.849,9.064c-2.744,0-4.508-1.567-4.802-4.508
			c-1.519,2.254-3.821,4.508-7.3,4.508c-3.332,0-6.517-2.058-6.517-7.889c0-6.614,4.066-17.148,12.592-17.148
			c2.793,0,3.969,1.078,3.969,2.499v0.343l0.539-2.597H97.477z M80.572-82.46c0,3.772,1.568,3.821,2.45,3.821
			c1.421,0,3.479-1.47,4.066-4.312l2.352-11.073c0-0.588-0.44-1.862-2.009-1.862C83.268-95.885,80.572-87.066,80.572-82.46z"/>
		<path fill="#263238" d="M112.226-108.478l-5.635,26.458c-0.146,0.638-0.196,1.127-0.196,1.568c0,1.372,0.638,1.812,2.009,1.812
			c1.911,0,3.675-1.861,4.41-4.312h2.058c-2.793,7.986-7.644,9.064-10.289,9.064c-2.939,0-5.242-1.764-5.242-5.88
			c0-0.931,0.146-2.009,0.392-3.185l5.242-24.547L112.226-108.478z"/>
		<path fill="#263238" d="M122.418-78.541c1.861,0,4.213-1.226,5.781-2.597c-1.029,5.585-4.557,7.251-8.477,7.251
			c-4.557,0-7.594-2.254-7.594-7.79c0-5.635,3.185-17.443,13.229-17.443c4.36,0,5.39,2.254,5.39,4.704
			c0,5.684-5.39,9.995-11.27,10.338c-0.049,0.49-0.098,1.029-0.098,1.47C119.38-79.521,120.703-78.541,122.418-78.541z
			 M125.749-96.522c-2.449,0-4.899,5.438-5.928,10.093c3.821-0.196,7.153-3.969,7.153-8.084
			C126.975-95.738,126.681-96.522,125.749-96.522z"/>
	</g>
</g>
<g id="reversed">
</g>
</svg>
