<?xml version="1.0" encoding="UTF-8" standalone="no"?>
<svg width="76px" height="20px" viewBox="0 0 76 20" version="1.1" xmlns="http://www.w3.org/2000/svg" xmlns:xlink="http://www.w3.org/1999/xlink" xmlns:sketch="http://www.bohemiancoding.com/sketch/ns">
    <!-- Generator: Sketch 3.3.3 (12072) - http://www.bohemiancoding.com/sketch -->
    <title>Logo</title>
    <desc>Created with Sketch.</desc>
    <defs></defs>
    <g id="Page-1" stroke="none" stroke-width="1" fill="none" fill-rule="evenodd" sketch:type="MSPage">
        <g id="Artboard" sketch:type="MSArtboardGroup" transform="translate(0.000000, -4.000000)">
            <g id="Logo" sketch:type="MSLayerGroup" transform="translate(0.000000, 4.000000)">
                <g id="Fill-1-+-Fill-3" sketch:type="MSShapeGroup">
                    <path d="M10,11 L2,7 L10,0 L18,7 L10,11 Z" id="Fill-1" fill="#FFA726"></path>
                    <path d="M0,11 L0,3 L10,8 L20,3 L20,11 C20,17 16,20 10,20 C4,20 0,17 0,11 Z" id="Fill-3" fill="#FF7043"></path>
                </g>
                <path d="M33.88,14.808 L33.88,2.16 L29.752,2.16 L29.752,18 L41.824,18 L41.824,14.808 L33.88,14.808 Z M55.504,15.672 C54.928,15.672 54.64,15.36 54.64,14.736 L54.64,10.368 C54.64,7.272 52.6,5.76 48.904,5.76 C45.64,5.76 43.768,7.176 43.36,9.456 L46.672,10.416 C46.912,9.024 47.752,8.568 48.904,8.568 C49.984,8.568 50.608,9.264 50.608,10.344 L50.608,10.776 L47.896,11.304 C44.488,11.976 43.216,13.248 43.216,15.24 C43.216,17.184 44.56,18.24 46.936,18.24 C49.144,18.24 50.536,17.544 51.208,16.392 C51.568,17.688 52.696,18.24 54.304,18.24 C54.904,18.24 55.456,18.12 55.936,17.856 L56.248,15.576 C56.032,15.648 55.792,15.672 55.504,15.672 L55.504,15.672 Z M48.424,15.6 C47.68,15.6 47.248,15.24 47.248,14.568 C47.248,13.896 47.656,13.56 48.664,13.32 L50.608,12.864 L50.608,13.896 C50.608,15 49.432,15.6 48.424,15.6 L48.424,15.6 Z M60.888,0.912 L56.808,0.912 L56.808,14.448 C56.808,17.112 57.888,18.24 60.456,18.24 C61.344,18.24 62.376,18 62.952,17.64 L63.216,15.12 C62.784,15.264 62.472,15.336 61.992,15.336 C61.152,15.336 60.888,14.904 60.888,13.848 L60.888,0.912 Z M75.392,11.832 C75.392,8.04 73.304,5.76 69.392,5.76 C65.384,5.76 63.128,8.04 63.128,12 C63.128,15.96 65.408,18.24 69.608,18.24 C72.392,18.24 74.432,17.184 75.128,15.096 L71.816,14.04 C71.552,14.88 70.808,15.36 69.608,15.36 C68.24,15.36 67.352,14.736 67.088,13.176 L75.272,13.176 C75.344,12.864 75.392,12.24 75.392,11.832 L75.392,11.832 Z M69.368,8.616 C70.64,8.616 71.384,9.432 71.576,10.968 L67.064,10.968 C67.304,9.36 68.072,8.616 69.368,8.616 L69.368,8.616 Z" id="Lale" fill="#2C4C5E" sketch:type="MSShapeGroup"></path>
            </g>
        </g>
    </g>
</svg>